<?xml version="1.0" encoding="UTF-8" standalone="no"?>
<svg
   xmlns:dc="http://purl.org/dc/elements/1.1/"
   xmlns:cc="http://creativecommons.org/ns#"
   xmlns:rdf="http://www.w3.org/1999/02/22-rdf-syntax-ns#"
   xmlns:svg="http://www.w3.org/2000/svg"
   xmlns="http://www.w3.org/2000/svg"
   xmlns:sodipodi="http://sodipodi.sourceforge.net/DTD/sodipodi-0.dtd"
   xmlns:inkscape="http://www.inkscape.org/namespaces/inkscape"
   width="500"
   height="500"
   viewBox="0 0 375 375"
   version="1.1"
   id="svg388"
   sodipodi:docname="bikeLogo.svg"
   inkscape:version="0.92.4 (5da689c313, 2019-01-14)"
   inkscape:export-filename="D:\Pictures\logos\bikeLogo500.png"
   inkscape:export-xdpi="151.89999"
   inkscape:export-ydpi="151.89999">
  <metadata
     id="metadata394">
    <rdf:RDF>
      <cc:Work
         rdf:about="">
        <dc:format>image/svg+xml</dc:format>
        <dc:type
           rdf:resource="http://purl.org/dc/dcmitype/StillImage" />
        <dc:title />
      </cc:Work>
    </rdf:RDF>
  </metadata>
  <defs
     id="defs392" />
  <sodipodi:namedview
     pagecolor="#ffffff"
     bordercolor="#666666"
     borderopacity="1"
     objecttolerance="10"
     gridtolerance="10"
     guidetolerance="10"
     inkscape:pageopacity="0"
     inkscape:pageshadow="2"
     inkscape:window-width="1920"
     inkscape:window-height="1001"
     id="namedview390"
     showgrid="false"
     inkscape:zoom="1"
     inkscape:cx="85.140521"
     inkscape:cy="338.68844"
     inkscape:window-x="-9"
     inkscape:window-y="-9"
     inkscape:window-maximized="1"
     inkscape:current-layer="svg388"
     inkscape:pagecheckerboard="true"
     units="px" />
  <g
     id="g4239"
     transform="matrix(2.3238636,0,0,2.3238636,577.03028,-647.17018)"
     inkscape:export-xdpi="160.89999"
     inkscape:export-ydpi="160.89999"
     style="fill:#ffffff">
    <path
       style="fill:#ffffff;fill-opacity:1;fill-rule:nonzero;stroke:none"
       d="m -196.27123,351.30398 c 4.52343,3.5586 7.91406,8.6211 9.30859,14.66797 3.25,14.08203 -5.53125,28.13672 -19.61328,31.39063 -14.08594,3.25 -28.14063,-5.53125 -31.39063,-19.61719 -3.2539,-14.08203 5.52735,-28.13672 19.61329,-31.39062 3.0039,-0.69141 6.0039,-0.83204 8.90234,-0.5 -3.33594,-0.46094 -6.80469,-0.33985 -10.27734,0.46093 -15.27344,3.52735 -24.79688,18.76953 -21.26954,34.03907 3.52735,15.27734 18.76563,24.79687 34.03907,21.27343 15.27343,-3.52734 24.79687,-18.76953 21.27343,-34.03906 -1.5664,-6.77344 -5.43359,-12.41016 -10.58593,-16.28516"
       id="path261"
       inkscape:connector-curvature="0" />
    <path
       style="fill:#ffffff;fill-opacity:1;fill-rule:nonzero;stroke:none"
       d="m -129.34545,346.99539 c 5.50781,-1.66406 11.60156,-1.53516 17.35156,0.78516 13.402348,5.41797 19.874998,20.67187 14.460928,34.07422 -5.414058,13.40234 -20.667958,19.8789 -34.070308,14.46093 -13.40234,-5.41406 -19.8789,-20.66797 -14.46093,-34.07031 1.15234,-2.85937 2.75781,-5.39844 4.69141,-7.57812 -2.28516,2.46875 -4.17579,5.3789 -5.51172,8.68359 -5.8711,14.53125 1.14843,31.07422 15.68359,36.94531 14.53125,5.8711 31.07421,-1.15234 36.945308,-15.68359 5.875,-14.53516 -1.14844,-31.07813 -15.683588,-36.94531 -6.44141,-2.60547 -13.28125,-2.66797 -19.40625,-0.67188"
       id="path263"
       inkscape:connector-curvature="0" />
    <path
       style="fill:#ffffff;fill-opacity:1;fill-rule:nonzero;stroke:none"
       d="m -199.24389,336.19852 c 0,0 22.54297,10.57421 37.23828,40.43359 0,0 -17.55468,-27.66406 -38.83594,-36.44141 l 1.59766,-3.99218"
       id="path265"
       inkscape:connector-curvature="0" />
    <path
       style="fill:#ffffff;fill-opacity:1;fill-rule:nonzero;stroke:none"
       d="m -144.18139,326.6243 -15.69531,48.41015 19.41797,-49.21093 z m 0,0"
       id="path267"
       inkscape:connector-curvature="0" />
    <path
       style="fill:#ffffff;fill-opacity:1;fill-rule:nonzero;stroke:none"
       d="m -152.95873,323.03055 c 0,0 9.83984,0.93359 22.54297,-0.9961 0,0 0.99609,6.38672 -6.38282,6.58203 -7.38281,0.20313 -13.76562,-3.39062 -16.16015,-5.58593"
       id="path269"
       inkscape:connector-curvature="0" />
    <path
       style="fill:#ffffff;fill-opacity:1;fill-rule:nonzero;stroke:none"
       d="m -162.13842,382.21805 c 0,0 -5.71875,-1.19922 -5.98437,-7.44922 -0.26563,-6.25 5.98437,-12.10156 40.5664,-4.92188 0,0 -20.88281,-3.72265 -32.05468,-1.19531 -11.17188,2.52734 -6.51563,12.90234 -2.52735,13.56641"
       id="path271"
       inkscape:connector-curvature="0" />
    <path
       style="fill:#ffffff;fill-opacity:1;fill-rule:nonzero;stroke:none"
       d="m -198.44701,334.33914 52.0039,1.85938 1.19922,-3.19141 -52.13672,-2.39453 -1.0664,3.72656"
       id="path273"
       inkscape:connector-curvature="0" />
    <path
       style="fill:#ffffff;fill-opacity:1;fill-rule:nonzero;stroke:none"
       d="m -145.50951,332.21023 27.26172,41.4961 -38.70313,2.66015 34.98047,-4.78906 -24.33984,-34.84765 0.80078,-4.51954"
       id="path275"
       inkscape:connector-curvature="0" />
    <path
       style="fill:#ffffff;fill-opacity:1;fill-rule:nonzero;stroke:none"
       d="m -214.40795,374.5032 c 0,0 15.5625,-20.74609 22.94531,-60.05078 0,0 -8.97656,-2.59375 -17.75781,-0.59765 -8.77735,1.99609 -11.76953,13.16796 2.59375,16.16015 l 1,-3.58984 c 0,0 -8.78125,-1.79688 -7.1836,-5.98438 1.59766,-4.1914 7.98047,-5.58593 16.95704,-4.1914 0,0 -1.59375,18.7539 -18.55469,58.2539"
       id="path277"
       inkscape:connector-curvature="0" />
  </g>
</svg>
