<?xml version="1.0" encoding="UTF-8" standalone="no"?>
<svg
   xmlns:dc="http://purl.org/dc/elements/1.1/"
   xmlns:cc="http://creativecommons.org/ns#"
   xmlns:rdf="http://www.w3.org/1999/02/22-rdf-syntax-ns#"
   xmlns:svg="http://www.w3.org/2000/svg"
   xmlns="http://www.w3.org/2000/svg"
   xmlns:sodipodi="http://sodipodi.sourceforge.net/DTD/sodipodi-0.dtd"
   xmlns:inkscape="http://www.inkscape.org/namespaces/inkscape"
   width="500"
   height="500"
   viewBox="0 0 375 375"
   version="1.1"
   id="svg388"
   sodipodi:docname="bikeLogoFav.svg"
   inkscape:version="0.92.4 (5da689c313, 2019-01-14)"
   inkscape:export-filename="D:\Pictures\logos\bikeLogo500.png"
   inkscape:export-xdpi="151.89999"
   inkscape:export-ydpi="151.89999">
  <metadata
     id="metadata394">
    <rdf:RDF>
      <cc:Work
         rdf:about="">
        <dc:format>image/svg+xml</dc:format>
        <dc:type
           rdf:resource="http://purl.org/dc/dcmitype/StillImage" />
        <dc:title></dc:title>
      </cc:Work>
    </rdf:RDF>
  </metadata>
  <defs
     id="defs392" />
  <sodipodi:namedview
     pagecolor="#ffffff"
     bordercolor="#666666"
     borderopacity="1"
     objecttolerance="10"
     gridtolerance="10"
     guidetolerance="10"
     inkscape:pageopacity="0"
     inkscape:pageshadow="2"
     inkscape:window-width="1920"
     inkscape:window-height="1001"
     id="namedview390"
     showgrid="false"
     inkscape:zoom="1"
     inkscape:cx="-98.359479"
     inkscape:cy="303.13883"
     inkscape:window-x="-9"
     inkscape:window-y="-9"
     inkscape:window-maximized="1"
     inkscape:current-layer="svg388"
     inkscape:pagecheckerboard="true"
     units="px" />
  <path
     inkscape:connector-curvature="0"
     id="path261"
     d="m 120.92271,169.21235 c 10.51184,8.2697 18.3912,20.03426 21.6319,34.08636 7.55255,32.72472 -12.85387,65.3859 -45.578591,72.94755 -32.733803,7.55255 -65.394986,-12.85387 -72.947543,-45.58768 -7.561619,-32.72472 12.844808,-65.3859 45.578611,-72.94752 6.980654,-1.60674 13.952245,-1.93354 20.687824,-1.16193 -7.75227,-1.07116 -15.813171,-0.78976 -23.883136,1.07114 -35.493392,8.19708 -57.6245671,43.61783 -49.42751,79.10216 8.19708,35.50245 43.608764,57.62454 79.102156,49.43654 35.493369,-8.19705 57.624539,-43.61782 49.436549,-79.10213 -3.6401,-15.74055 -12.62692,-28.83952 -24.60026,-37.84449"
     style="fill:#333333;fill-opacity:1;fill-rule:nonzero;stroke:none;stroke-width:2.32386351" />
  <path
     inkscape:connector-curvature="0"
     id="path263"
     d="m 276.4491,159.19978 c 12.7994,-3.86705 26.96044,-3.56751 40.32266,1.8246 31.14522,12.59062 46.18678,48.03861 33.60522,79.18384 -12.58153,31.14521 -48.02952,46.19585 -79.17475,33.60523 -31.14521,-12.58154 -46.19585,-48.02954 -33.60523,-79.17475 2.67788,-6.64479 6.40878,-12.54524 10.9022,-17.61052 -5.3104,5.73704 -9.70397,12.49983 -12.80849,20.17948 -13.64363,33.76864 2.6688,72.21225 36.44653,85.85586 33.76864,13.64363 72.21222,-2.67788 85.85585,-36.44653 13.6527,-33.77772 -2.66881,-72.22133 -36.44652,-85.85586 -14.96895,-6.05475 -30.86381,-6.19999 -45.09747,-1.56135"
     style="fill:#333333;fill-opacity:1;fill-rule:nonzero;stroke:none;stroke-width:2.32386351" />
  <path
     inkscape:connector-curvature="0"
     id="path265"
     d="m 114.01466,134.10932 c 0,0 52.38678,24.57302 86.53668,93.96215 0,0 -40.79468,-64.2875 -90.24943,-84.68487 l 3.71275,-9.27728"
     style="fill:#ff0000;fill-opacity:1;fill-rule:nonzero;stroke:none;stroke-width:2.32386351" />
  <path
     inkscape:connector-curvature="0"
     id="path267"
     d="m 241.9724,111.86014 -36.47376,112.49859 45.12471,-114.35949 z m 0,0"
     style="fill:#ff0000;fill-opacity:1;fill-rule:nonzero;stroke:none;stroke-width:2.32386351" />
  <path
     inkscape:connector-curvature="0"
     id="path269"
     d="m 221.57506,103.50876 c 0,0 22.86644,2.16953 52.38678,-2.3148 0,0 2.31478,14.84186 -14.8328,15.29574 -17.15664,0.47204 -31.98942,-7.87934 -37.55398,-12.98094"
     style="fill:#333333;fill-opacity:1;fill-rule:nonzero;stroke:none;stroke-width:2.32386351" />
  <path
     inkscape:connector-curvature="0"
     id="path271"
     d="m 200.24271,241.05243 c 0,0 -13.2896,-2.78682 -13.90686,-17.31097 -0.61729,-14.52415 13.90686,-28.12237 94.27078,-11.43778 0,0 -48.5288,-8.65093 -74.49071,-2.77773 -25.96192,5.87319 -15.14143,29.98328 -5.87321,31.52648"
     style="fill:#333333;fill-opacity:1;fill-rule:nonzero;stroke:none;stroke-width:2.32386351" />
  <path
     inkscape:connector-curvature="0"
     id="path273"
     d="m 115.8665,129.78838 120.84997,4.32094 2.78682,-7.4164 -121.15862,-5.56456 -2.47817,8.66002"
     style="fill:#ff0000;fill-opacity:1;fill-rule:nonzero;stroke:none;stroke-width:2.32386351" />
  <path
     inkscape:connector-curvature="0"
     id="path275"
     d="m 238.88603,124.84108 63.35252,96.43128 -89.9408,6.18182 81.28984,-11.12912 -56.56247,-80.98118 1.86091,-10.5028"
     style="fill:#ff0000;fill-opacity:1;fill-rule:nonzero;stroke:none;stroke-width:2.32386351" />
  <path
     inkscape:connector-curvature="0"
     id="path277"
     d="m 78.775449,223.12417 c 0,0 36.165131,-48.21108 53.321771,-139.549817 0,0 -20.8603,-6.027521 -41.266728,-1.388857 -20.397364,4.638641 -27.350782,30.600544 6.027521,37.553984 l 2.323864,-8.3423 c 0,0 -20.406428,-4.1757 -16.693707,-13.906881 3.712744,-9.740242 18.54552,-12.98094 39.40585,-9.740242 0,0 -3.70366,43.581503 -43.118571,135.374113"
     style="fill:#000000;fill-opacity:1;fill-rule:nonzero;stroke:none;stroke-width:2.32386351" />
</svg>
