<?xml version="1.0" standalone="no"?>
<!DOCTYPE svg PUBLIC "-//W3C//DTD SVG 20010904//EN"
 "http://www.w3.org/TR/2001/REC-SVG-20010904/DTD/svg10.dtd">
<svg version="1.0" xmlns="http://www.w3.org/2000/svg"
 width="700.000000pt" height="700.000000pt" viewBox="0 0 700.000000 700.000000"
 preserveAspectRatio="xMidYMid meet">
<metadata>
Created by potrace 1.11, written by Peter Selinger 2001-2013
</metadata>
<g transform="translate(0.000000,700.000000) scale(0.100000,-0.100000)"
fill="#000000" stroke="none">
<path d="M3298 6995 c-2 -2 -41 -6 -88 -10 -47 -3 -98 -8 -115 -10 -16 -2 -52
-6 -80 -10 -75 -9 -186 -29 -320 -60 -153 -34 -457 -133 -450 -145 3 -6 0 -7
-8 -4 -7 2 -36 -5 -63 -17 -27 -12 -54 -23 -60 -25 -28 -5 -295 -143 -400
-205 -520 -309 -947 -743 -1254 -1274 -52 -90 -170 -325 -170 -338 0 -4 -9
-26 -20 -50 -57 -123 -157 -435 -186 -582 -2 -11 -10 -54 -19 -95 -19 -97 -24
-125 -30 -180 -3 -25 -8 -54 -10 -65 -19 -93 -26 -542 -12 -729 5 -55 10 -102
12 -105 1 -3 6 -34 9 -68 5 -52 31 -205 40 -238 1 -5 11 -47 21 -92 10 -45 22
-80 26 -77 5 3 6 -2 3 -10 -3 -9 4 -48 17 -88 12 -40 23 -75 24 -78 5 -26 57
-172 76 -215 28 -66 42 -101 44 -105 12 -42 155 -328 186 -371 10 -15 19 -30
19 -33 0 -4 39 -66 87 -139 198 -299 472 -599 748 -817 94 -74 355 -253 415
-284 19 -10 62 -33 95 -51 33 -18 85 -45 115 -60 30 -15 72 -36 93 -46 21 -11
43 -17 48 -14 5 4 9 2 9 -3 0 -17 280 -122 445 -167 118 -32 131 -35 175 -45
131 -29 194 -41 315 -55 22 -3 49 -7 60 -10 114 -25 639 -25 800 0 17 2 48 7
70 9 127 16 367 63 435 85 14 5 45 14 70 21 217 60 640 237 713 298 9 8 17 11
17 7 0 -4 8 -2 18 6 9 8 33 23 52 33 90 48 410 271 440 305 3 3 37 33 75 65
120 102 454 446 432 446 -3 0 8 14 23 30 40 43 157 208 231 325 133 211 293
557 359 775 12 41 25 82 28 90 7 21 10 32 16 56 2 12 9 39 15 60 21 70 66 305
77 399 3 22 7 50 9 63 19 108 26 512 12 672 -14 166 -17 195 -23 218 -2 13 -7
43 -10 65 -6 39 -27 157 -38 202 -2 11 -9 43 -16 70 -14 64 -75 272 -91 310
-7 17 -13 37 -15 45 -2 8 -9 30 -18 50 -8 19 -22 56 -32 82 -10 25 -23 44 -28
41 -5 -4 -6 -1 -2 5 4 7 4 18 -1 25 -4 6 -8 17 -9 22 -5 30 -139 283 -147 278
-6 -3 -7 -1 -4 5 4 5 -14 45 -39 89 -46 78 -179 278 -198 299 -6 7 -20 24 -31
40 -17 23 -49 64 -130 161 -95 116 -313 327 -472 458 -7 6 -19 16 -27 23 -8 6
-20 12 -26 12 -5 0 -10 4 -10 9 0 4 -17 20 -37 34 -21 14 -70 48 -110 75 -39
28 -74 48 -77 45 -3 -4 -6 -2 -6 4 0 14 -194 127 -348 203 -103 51 -329 149
-357 154 -5 1 -53 16 -106 34 -96 32 -334 95 -399 106 -94 16 -302 46 -355 52
-61 6 -522 14 -527 9z"/>
</g>
</svg>
